<svg id="Capa_1" enable-background="new 0 0 510.023 510.023" height="512" viewBox="0 0 510.023 510.023" width="512" xmlns="http://www.w3.org/2000/svg"><g id="XMLID_589_"><path id="XMLID_594_" d="m468.562 41.46c-26.736-26.736-62.284-41.46-100.094-41.46s-73.358 14.724-100.095 41.46c-32.726 32.726-59.333 91.285-64.705 142.406-1.134 10.796-5.85 20.833-13.279 28.261l-22.371 22.373c-13.557 13.557-21.354 31.335-22.183 50.369l-62.12 62.12c-8.332-4.73-17.787-7.248-27.627-7.248-14.982 0-29.066 5.834-39.66 16.428-10.594 10.595-16.428 24.679-16.428 39.661s5.834 29.066 16.427 39.66c10.594 10.594 24.678 16.428 39.66 16.428.688 0 1.372-.013 2.056-.037-.024.684-.037 1.368-.037 2.056 0 14.982 5.834 29.066 16.427 39.66 10.594 10.594 24.678 16.428 39.66 16.428 14.981 0 29.066-5.834 39.66-16.427 10.594-10.594 16.428-24.678 16.428-39.66 0-9.982-2.589-19.566-7.46-27.992l61.74-61.74c19.258-.691 37.265-8.5 50.962-22.198l22.372-22.372c7.429-7.429 17.466-12.145 28.262-13.279 51.121-5.372 109.681-31.979 142.405-64.704 26.736-26.736 41.461-62.284 41.461-100.095s-14.724-73.361-41.461-100.098zm-346.932 383.249 10.822 10.605c.1.098.2.193.309.295 4.852 4.914 7.521 11.415 7.521 18.326 0 6.968-2.713 13.52-7.641 18.447s-11.479 7.641-18.447 7.641-13.52-2.713-18.447-7.641c-4.927-4.927-7.641-11.478-7.641-18.446s2.713-13.519 7.641-18.447l-21.213-21.213c-4.928 4.927-11.479 7.641-18.447 7.641s-13.52-2.714-18.447-7.642c-4.927-4.926-7.64-11.477-7.64-18.445s2.713-13.519 7.641-18.447c4.927-4.927 11.478-7.641 18.446-7.641s13.519 2.714 18.447 7.641l10.606 10.607 67.672-67.672c3.707 7.959 8.812 15.295 15.205 21.688 6.287 6.287 13.481 11.337 21.288 15.028zm325.72-204.271c-28.302 28.302-79.427 51.364-124.327 56.081-17.609 1.85-34.066 9.628-46.34 21.901l-22.372 22.373c-8.692 8.691-20.248 13.479-32.54 13.479s-23.848-4.787-32.54-13.479c-8.691-8.692-13.478-20.248-13.478-32.54s4.787-23.848 13.479-32.54l22.372-22.373c12.273-12.272 20.051-28.729 21.901-46.339 4.717-44.9 27.779-96.025 56.082-124.328 21.069-21.069 49.083-32.673 78.881-32.673s57.812 11.604 78.882 32.673c21.07 21.07 32.674 49.084 32.674 78.882s-11.604 57.813-32.674 78.883z"/></g></svg>