<svg id="Capa_1" enable-background="new 0 0 512 512" height="512" viewBox="0 0 512 512" width="512" xmlns="http://www.w3.org/2000/svg"><g><path d="m287.98 0h-60c-8.284 0-15 6.716-15 15v16.44h-45c-8.284 0-15 6.716-15 15v50.81h-45c-8.284 0-15 6.716-15 15v87.99c-3.835-.849-6.013-1.26-6.195-1.295-10.151-1.892-19.14 6.81-17.583 17.007l43.22 283.31c1.117 7.326 7.417 12.738 14.828 12.738h257.5c7.41 0 13.711-5.412 14.828-12.738 18.831-123.425 42.908-281.266 43.22-283.31 1.705-11.169-9.125-20.173-19.817-16.399v-121.093c0-8.284-6.716-15-15-15h-60c-8.284 0-15 6.716-15 15v18.79h-30v-82.25c-.001-8.284-6.717-15-15.001-15zm.825 284.544.333-.131 120.073-47.229-21.796 142.882c-26.656-38.084-60.914-69.701-98.61-95.522zm-45.825-254.544h30v228.532l-15.671 6.164c-1.421-.823-8.311-4.766-14.329-8.013 0-8.448 0-218.361 0-226.683zm-60 31.44h30v180.193c-8.613-4.016-19.963-8.962-30-12.993 0-8.081 0-162.182 0-167.2zm-60 65.81h30v90.21c-9.417-3.243-20.08-6.637-30-9.496zm17.155 354.75-37.932-248.643c109.032 28.653 224.685 92.805 278.225 192.506l-8.564 56.137zm222.845-388.54h30v117.871l-30 11.8v-110.881zm-30 33.79v107.681l-30 11.8v-119.481z"/></g></svg>