<svg width="40" height="40" viewBox="0 0 40 40" fill="none" xmlns="http://www.w3.org/2000/svg">
<path d="M36.7483 3.25162C34.6515 1.15477 31.8635 0 28.8981 0C25.9328 0 23.1448 1.15477 21.0479 3.25162C18.4813 5.81825 16.3946 10.4109 15.9732 14.4202C15.8843 15.2669 15.5144 16.0541 14.9318 16.6367L13.1773 18.3913C12.114 19.4546 11.5025 20.8489 11.4375 22.3417L6.56559 27.2136C5.91213 26.8426 5.17059 26.6452 4.39886 26.6452C3.22385 26.6452 2.11928 27.1027 1.28841 27.9336C0.457548 28.7645 0 29.8691 0 31.0441C0 32.2191 0.457548 33.3237 1.28833 34.1545C2.1192 34.9854 3.22378 35.443 4.39878 35.443C4.45274 35.443 4.50639 35.4419 4.56003 35.44C4.55815 35.4937 4.55713 35.5473 4.55713 35.6013C4.55713 36.7763 5.01468 37.8809 5.84546 38.7117C6.67633 39.5426 7.7809 40.0002 8.95591 40.0002C10.1308 40.0002 11.2355 39.5426 12.0664 38.7118C12.8972 37.881 13.3548 36.7764 13.3548 35.6014C13.3548 34.8185 13.1517 34.0669 12.7697 33.406L17.6118 28.5639C19.1222 28.5097 20.5344 27.8973 21.6087 26.8229L23.3633 25.0684C23.9459 24.4857 24.7331 24.1159 25.5798 24.0269C29.5891 23.6056 34.1818 21.5189 36.7483 18.9523C38.8451 16.8555 40 14.0675 40 11.1021C40 8.13665 38.8452 5.34854 36.7483 3.25162ZM9.53918 33.309L10.3879 34.1407C10.3958 34.1484 10.4036 34.1559 10.4122 34.1639C10.7927 34.5493 11.002 35.0591 11.002 35.6011C11.002 36.1476 10.7892 36.6615 10.4027 37.0479C10.0163 37.4343 9.50247 37.6472 8.95599 37.6472C8.4095 37.6472 7.89564 37.4344 7.50923 37.0479C7.12282 36.6615 6.90996 36.1477 6.90996 35.6012C6.90996 35.0547 7.12274 34.541 7.50923 34.1545L5.84554 32.4908C5.45905 32.8772 4.94527 33.09 4.39878 33.09C3.8523 33.09 3.33844 32.8772 2.95202 32.4907C2.56561 32.1044 2.35284 31.5906 2.35284 31.0441C2.35284 30.4976 2.56561 29.9838 2.9521 29.5973C3.33852 29.2109 3.8523 28.9981 4.39878 28.9981C4.94527 28.9981 5.45905 29.2109 5.84554 29.5973L6.67735 30.4292L11.9847 25.1218C12.2754 25.7461 12.6758 26.3214 13.1772 26.8228C13.6703 27.3159 14.2345 27.7119 14.8468 28.0014L9.53918 33.309ZM35.0847 17.2885C32.865 19.5081 28.8554 21.3168 25.334 21.6868C23.953 21.8319 22.6623 22.4419 21.6996 23.4044L19.9451 25.1591C19.2634 25.8407 18.3571 26.2162 17.393 26.2162C16.429 26.2162 15.5227 25.8408 14.841 25.1591C14.1594 24.4774 13.7839 23.5711 13.7839 22.6071C13.7839 21.643 14.1594 20.7367 14.8411 20.055L16.5956 18.3004C17.5582 17.3379 18.1682 16.0472 18.3133 14.6661C18.6832 11.1447 20.4919 7.13505 22.7117 4.91531C24.3641 3.26291 26.5612 2.35284 28.8981 2.35284C31.2351 2.35284 33.4322 3.26291 35.0847 4.91531C36.7372 6.56778 37.6472 8.76486 37.6472 11.1019C37.6472 13.4388 36.7372 15.636 35.0847 17.2885Z" fill="#FF0000"/>
</svg>
