<svg width="40" height="40" viewBox="0 0 40 40" fill="none" xmlns="http://www.w3.org/2000/svg">
<path d="M38.8281 16.4062H37.5367C37.298 15.2452 36.7094 14.1786 35.8472 13.3528C36.2908 11.8291 36.1036 10.1789 35.3013 8.78906C34.4987 7.39922 33.1631 6.41203 31.6219 6.03437C31.2441 4.49312 30.257 3.1575 28.8671 2.355C27.4774 1.55266 25.8271 1.36547 24.3034 1.80906C23.2059 0.663125 21.683 0 20.0781 0C18.448 0 16.8205 0.690938 15.707 1.81211C14.1805 1.36469 12.5256 1.55086 11.1328 2.355C9.74297 3.15742 8.75578 4.49312 8.37805 6.0343C6.8368 6.41195 5.50117 7.39914 4.69875 8.78898C3.89633 10.1788 3.70922 11.8291 4.15281 13.3527C3.29062 14.1786 2.70203 15.2452 2.46328 16.4062H1.17188C0.524687 16.4062 0 16.9309 0 17.5781C0 24.4577 3.56648 30.8376 9.375 34.4734V36.4844C9.375 38.4229 10.9521 40 12.8906 40H27.1094C29.0479 40 30.625 38.4229 30.625 36.4844V34.4734C36.4335 30.8376 40 24.4577 40 17.5781C40 16.9309 39.4753 16.4062 38.8281 16.4062ZM6.21063 14.689C6.68203 14.3627 6.84805 13.7431 6.60305 13.2247C6.10727 12.1758 6.15414 10.9557 6.72852 9.96094C7.30289 8.96609 8.33609 8.31539 9.49219 8.22031C10.0636 8.17336 10.5171 7.71984 10.5641 7.14844C10.6592 5.99227 11.3098 4.95914 12.3047 4.38469C13.2995 3.81031 14.5196 3.76352 15.5684 4.25922C16.0868 4.5043 16.7063 4.3382 17.0327 3.8668C17.6634 2.95586 18.8873 2.34375 20.0781 2.34375C21.227 2.34375 22.307 2.91312 22.9673 3.86687C23.2937 4.33828 23.9132 4.50437 24.4316 4.2593C25.4804 3.76352 26.7004 3.81039 27.6952 4.38477C28.6901 4.95914 29.3408 5.99227 29.4358 7.14844C29.4827 7.71984 29.9362 8.17336 30.5077 8.22039C31.6638 8.31547 32.697 8.96617 33.2715 9.96102C33.8459 10.9558 33.8927 12.1759 33.3969 13.2248C33.1519 13.7431 33.3179 14.3627 33.7893 14.6891C34.4073 15.1169 34.8625 15.7215 35.1073 16.4063H4.8925C5.13742 15.7214 5.59258 15.1168 6.21063 14.689ZM28.2812 36.4844C28.2812 37.1305 27.7555 37.6562 27.1094 37.6562H12.8906C12.2445 37.6562 11.7188 37.1305 11.7188 36.4844V35.1562H28.2812V36.4844ZM28.8358 32.8125H11.1642C6.05703 29.8652 2.7732 24.5605 2.38297 18.7344H37.617C37.2268 24.5605 33.943 29.8652 28.8358 32.8125Z" fill="#FF0000"/>
</svg>
