<svg width="40" height="40" viewBox="0 0 40 40" fill="none" xmlns="http://www.w3.org/2000/svg">
<path d="M40 24.7607C40 23.0405 38.8947 21.5744 37.3575 21.0327V19.0778C37.6047 18.9865 37.8427 18.8663 38.0664 18.7161C38.956 18.1183 39.4662 17.1747 39.4662 16.1264C39.4662 15.4709 39.2636 14.8505 38.887 14.3286C39.0775 13.8773 39.1348 13.3762 39.0424 12.8824C38.3734 9.3045 36.076 6.02936 32.5735 3.65967C29.0851 1.29974 24.6198 0 20 0C15.3802 0 10.9149 1.29974 7.42645 3.65967C3.92395 6.02905 1.62659 9.3045 0.957642 12.8824C0.841675 13.5016 0.960998 14.1321 1.28387 14.6616C1.04065 15.1077 0.914001 15.6046 0.914001 16.1264C0.914001 17.1747 1.42426 18.1189 2.31415 18.7164C2.42035 18.7878 2.53052 18.8516 2.64252 18.9099V21.0327C1.10535 21.5744 0 23.0405 0 24.7607V24.9194C0 26.059 0.485535 27.0868 1.25977 27.8088C1.03394 28.2434 0.914001 28.7268 0.914001 29.2245C0.914001 30.0067 1.19843 30.7303 1.71204 31.2958V34.115C1.71204 37.1268 4.16229 39.5773 7.17438 39.5773H32.8256C35.8377 39.5773 38.288 37.1268 38.288 34.115V31.6501C39.0396 31.051 39.4662 30.1816 39.4662 29.2242C39.4662 28.624 39.2972 28.0557 38.9813 27.5644C39.614 26.8637 40 25.936 40 24.9194V24.7607ZM38.4375 24.7607V24.9194C38.4375 25.726 38.0353 26.4401 37.4213 26.8732C37.0212 27.1552 36.5375 27.309 36.048 27.309H23.9334L28.9154 22.3712H36.0477C37.3654 22.3712 38.4375 23.4433 38.4375 24.7607ZM11.8411 22.3712L11.965 22.4954L12.7664 23.2965L11.0889 24.9744L8.48572 22.3712H11.8411ZM19.2175 27.5378L14.4244 22.7451C14.4244 22.7448 14.4241 22.7444 14.4238 22.7441L14.0509 22.3712H26.6925L21.4713 27.5348C21.4709 27.5351 21.4706 27.5354 21.4703 27.536C21.4697 27.5366 21.4688 27.5372 21.4682 27.5378L20.3427 28.6633L19.2175 27.5378ZM2.49329 13.1693C3.08502 10.0052 5.14801 7.0874 8.302 4.95361C11.5347 2.76672 15.6891 1.5625 20 1.5625C24.3109 1.5625 28.4653 2.76672 31.698 4.95361C34.852 7.0874 36.9147 10.0052 37.5067 13.1693C37.6163 13.7561 37.1475 14.3167 36.5518 14.3167H3.44818C2.85156 14.3167 2.38373 13.7561 2.49329 13.1693ZM2.53418 15.7092C2.8244 15.8215 3.13721 15.8792 3.44818 15.8792H36.5518C36.983 15.8792 37.4167 15.7675 37.7927 15.556C37.8662 15.7367 37.9037 15.9311 37.9037 16.1261C37.9037 16.6452 37.6456 17.1164 37.1951 17.4188C36.7346 17.7283 36.1481 17.8024 35.6213 17.6358C35.361 17.5534 35.1154 17.4472 34.8468 17.3898C34.5563 17.3276 34.259 17.3001 33.9621 17.3001C32.5665 17.3001 31.8176 17.8287 31.2161 18.2532C30.6882 18.6261 30.2713 18.9206 29.3716 18.9206C28.472 18.9206 28.0551 18.6261 27.5272 18.2535C26.9257 17.8284 26.1771 17.3001 24.7812 17.3001C23.3856 17.3001 22.637 17.8287 22.0355 18.2535C21.5076 18.6261 21.0907 18.9206 20.191 18.9206C19.2914 18.9206 18.8742 18.6261 18.3463 18.2532C17.7448 17.8284 16.9962 17.3001 15.6006 17.3001C14.205 17.3001 13.4561 17.8287 12.8546 18.2532C12.3267 18.6261 11.9095 18.9206 11.0101 18.9206C10.1102 18.9206 9.6933 18.6261 9.16504 18.2532C8.56354 17.8284 7.81494 17.3001 6.41907 17.3001C5.867 17.3001 5.36926 17.3938 4.89716 17.5864C4.3396 17.814 3.68713 17.7563 3.18542 17.4191C2.73499 17.1167 2.47681 16.6455 2.47681 16.1264C2.4765 15.9827 2.49603 15.8429 2.53418 15.7092ZM4.36035 19.2825C4.7702 19.2627 5.15472 19.1592 5.53619 19.014C5.91675 18.8687 6.33179 18.84 6.73492 18.876C7.42462 18.9374 7.80182 19.2038 8.26385 19.5297C8.86536 19.9545 9.61395 20.4831 11.0098 20.4831C12.4054 20.4831 13.154 19.9545 13.7555 19.5297C14.2834 19.1571 14.7006 18.8626 15.6003 18.8626C16.4999 18.8626 16.9168 19.1571 17.4448 19.5297C18.0463 19.9545 18.7952 20.4831 20.1907 20.4831C21.5863 20.4831 22.3349 19.9545 22.9364 19.5297C23.4644 19.1571 23.8815 18.8626 24.7809 18.8626C25.6805 18.8626 26.0977 19.1571 26.6257 19.5297C27.2272 19.9545 27.9758 20.4831 29.3713 20.4831C30.7669 20.4831 31.5155 19.9545 32.117 19.5297C32.6453 19.1571 33.0621 18.8626 33.9618 18.8626C34.281 18.8626 34.5944 18.9157 34.892 19.0326C35.1822 19.1467 35.4843 19.2288 35.7947 19.2651V20.809H28.5941C28.5938 20.809 28.5938 20.809 28.5934 20.809H28.5931H12.1671C12.1664 20.809 12.1655 20.809 12.1649 20.809C12.164 20.809 12.1631 20.809 12.1625 20.809H4.20502V19.2868C4.2569 19.2865 4.30847 19.285 4.36035 19.2825ZM1.5625 24.7607C1.5625 23.4433 2.63458 22.3712 3.95203 22.3712H6.27625L10.5365 26.6318C10.683 26.7783 10.8817 26.8604 11.0889 26.8604C11.2961 26.8604 11.4948 26.7783 11.6412 26.6318L13.8715 24.4016L16.7789 27.309H3.95203C3.53912 27.309 3.12866 27.1997 2.77039 26.9949C2.04956 26.5833 1.5625 25.8075 1.5625 24.9194V24.7607ZM2.60559 28.6349C3.03558 28.7909 3.49457 28.8715 3.95203 28.8715H18.3414L19.7903 30.3204C20.09 30.6204 20.592 30.621 20.8926 30.3229L22.3572 28.8715H36.0477C36.4883 28.8715 36.9284 28.7967 37.3447 28.6526C37.4319 28.6224 37.5211 28.5919 37.6031 28.5498C37.6297 28.5361 37.6682 28.5056 37.6996 28.5077C37.7429 28.5107 37.7542 28.566 37.7698 28.6008C37.8543 28.7872 37.8995 28.9914 37.9031 29.1962C37.9163 29.9332 37.3856 30.5499 36.6925 30.7507C36.2955 30.8661 35.8655 30.8405 35.4828 30.6842C35.0116 30.4916 34.5139 30.3979 33.9618 30.3979C32.5662 30.3979 31.8176 30.9265 31.2161 31.3513C30.6879 31.7242 30.271 32.0187 29.3713 32.0187C28.472 32.0187 28.0548 31.7242 27.5269 31.3513C26.9254 30.9265 26.1768 30.3979 24.7812 30.3979C23.3856 30.3979 22.637 30.9265 22.0352 31.3513C21.5073 31.7242 21.0904 32.0187 20.1907 32.0187C19.2911 32.0187 18.8742 31.7242 18.3459 31.3513C17.7444 30.9265 16.9958 30.3979 15.6003 30.3979C14.2047 30.3979 13.4561 30.9265 12.8543 31.3513C12.3264 31.7242 11.9095 32.0187 11.0098 32.0187C10.1099 32.0187 9.69299 31.7239 9.16504 31.3513C8.56323 30.9265 7.81464 30.3979 6.41876 30.3979C5.8667 30.3979 5.36896 30.4916 4.89716 30.6845C4.38721 30.8926 3.79272 30.8652 3.31146 30.5942C2.88574 30.3546 2.56866 29.9438 2.4942 29.4559C2.47192 29.3115 2.4707 29.1638 2.48993 29.0189C2.49542 28.9767 2.56714 28.6209 2.60559 28.6349ZM36.7255 34.115C36.7255 36.2653 34.9759 38.0148 32.8256 38.0148H7.17438C5.02411 38.0148 3.27454 36.2653 3.27454 34.115V32.262C3.91602 32.4438 4.60846 32.431 5.26825 32.2116C5.28168 32.207 5.2951 32.2025 5.30823 32.1982C5.36835 32.1771 5.42847 32.1555 5.48767 32.131C5.76843 32.0163 6.073 31.9608 6.41876 31.9608C7.31873 31.9608 7.7356 32.2549 8.26355 32.6279C8.86536 33.0527 9.61395 33.5812 11.0098 33.5812C12.4054 33.5812 13.154 33.0527 13.7555 32.6279C14.2834 32.2549 14.7006 31.9608 15.6 31.9608C16.4996 31.9608 16.9168 32.2549 17.4448 32.6279C18.0463 33.0527 18.7949 33.5812 20.1907 33.5812C21.5863 33.5812 22.3349 33.0527 22.9364 32.6279C23.4644 32.2549 23.8815 31.9608 24.7809 31.9608C25.6805 31.9608 26.0977 32.2549 26.6254 32.6279C27.2269 33.0527 27.9758 33.5812 29.3713 33.5812C30.7669 33.5812 31.5155 33.0527 32.117 32.6279C32.645 32.2549 33.0621 31.9608 33.9618 31.9608C34.1946 31.9608 34.4281 31.9867 34.653 32.0493C34.8669 32.1088 35.069 32.2028 35.2829 32.2632C35.7474 32.3941 36.2488 32.4219 36.7252 32.3444V34.115H36.7255Z" fill="#FF0000"/>
</svg>
