<svg width="77" height="70" viewBox="0 0 77 70" fill="none" xmlns="http://www.w3.org/2000/svg">
<path d="M3.36 60.52H8.24V62H1.54V48.06H3.36V60.52ZM14.9528 62.18C13.9261 62.18 12.9928 61.9467 12.1528 61.48C11.3261 61.0133 10.6728 60.3533 10.1928 59.5C9.72615 58.6333 9.49281 57.6333 9.49281 56.5C9.49281 55.38 9.73281 54.3933 10.2128 53.54C10.7061 52.6733 11.3728 52.0133 12.2128 51.56C13.0528 51.0933 13.9928 50.86 15.0328 50.86C16.0728 50.86 17.0128 51.0933 17.8528 51.56C18.6928 52.0133 19.3528 52.6667 19.8328 53.52C20.3261 54.3733 20.5728 55.3667 20.5728 56.5C20.5728 57.6333 20.3195 58.6333 19.8128 59.5C19.3195 60.3533 18.6461 61.0133 17.7928 61.48C16.9395 61.9467 15.9928 62.18 14.9528 62.18ZM14.9528 60.58C15.6061 60.58 16.2195 60.4267 16.7928 60.12C17.3661 59.8133 17.8261 59.3533 18.1728 58.74C18.5328 58.1267 18.7128 57.38 18.7128 56.5C18.7128 55.62 18.5395 54.8733 18.1928 54.26C17.8461 53.6467 17.3928 53.1933 16.8328 52.9C16.2728 52.5933 15.6661 52.44 15.0128 52.44C14.3461 52.44 13.7328 52.5933 13.1728 52.9C12.6261 53.1933 12.1861 53.6467 11.8528 54.26C11.5195 54.8733 11.3528 55.62 11.3528 56.5C11.3528 57.3933 11.5128 58.1467 11.8328 58.76C12.1661 59.3733 12.6061 59.8333 13.1528 60.14C13.6995 60.4333 14.2995 60.58 14.9528 60.58ZM27.4858 50.86C28.4324 50.86 29.2591 51.0667 29.9658 51.48C30.6858 51.8933 31.2191 52.4133 31.5658 53.04V51.04H33.4058V62.24C33.4058 63.24 33.1924 64.1267 32.7658 64.9C32.3391 65.6867 31.7258 66.3 30.9258 66.74C30.1391 67.18 29.2191 67.4 28.1658 67.4C26.7258 67.4 25.5258 67.06 24.5658 66.38C23.6058 65.7 23.0391 64.7733 22.8658 63.6H24.6658C24.8658 64.2667 25.2791 64.8 25.9058 65.2C26.5324 65.6133 27.2858 65.82 28.1658 65.82C29.1658 65.82 29.9791 65.5067 30.6058 64.88C31.2458 64.2533 31.5658 63.3733 31.5658 62.24V59.94C31.2058 60.58 30.6724 61.1133 29.9658 61.54C29.2591 61.9667 28.4324 62.18 27.4858 62.18C26.5124 62.18 25.6258 61.94 24.8258 61.46C24.0391 60.98 23.4191 60.3067 22.9658 59.44C22.5124 58.5733 22.2858 57.5867 22.2858 56.48C22.2858 55.36 22.5124 54.38 22.9658 53.54C23.4191 52.6867 24.0391 52.0267 24.8258 51.56C25.6258 51.0933 26.5124 50.86 27.4858 50.86ZM31.5658 56.5C31.5658 55.6733 31.3991 54.9533 31.0658 54.34C30.7324 53.7267 30.2791 53.26 29.7058 52.94C29.1458 52.6067 28.5258 52.44 27.8458 52.44C27.1658 52.44 26.5458 52.6 25.9858 52.92C25.4258 53.24 24.9791 53.7067 24.6458 54.32C24.3124 54.9333 24.1458 55.6533 24.1458 56.48C24.1458 57.32 24.3124 58.0533 24.6458 58.68C24.9791 59.2933 25.4258 59.7667 25.9858 60.1C26.5458 60.42 27.1658 60.58 27.8458 60.58C28.5258 60.58 29.1458 60.42 29.7058 60.1C30.2791 59.7667 30.7324 59.2933 31.0658 58.68C31.3991 58.0533 31.5658 57.3267 31.5658 56.5ZM48.1334 62.14C46.8401 62.14 45.6601 61.84 44.5934 61.24C43.5268 60.6267 42.6801 59.78 42.0534 58.7C41.4401 57.6067 41.1334 56.38 41.1334 55.02C41.1334 53.66 41.4401 52.44 42.0534 51.36C42.6801 50.2667 43.5268 49.42 44.5934 48.82C45.6601 48.2067 46.8401 47.9 48.1334 47.9C49.4401 47.9 50.6268 48.2067 51.6934 48.82C52.7601 49.42 53.6001 50.26 54.2134 51.34C54.8268 52.42 55.1334 53.6467 55.1334 55.02C55.1334 56.3933 54.8268 57.62 54.2134 58.7C53.6001 59.78 52.7601 60.6267 51.6934 61.24C50.6268 61.84 49.4401 62.14 48.1334 62.14ZM48.1334 60.56C49.1068 60.56 49.9801 60.3333 50.7534 59.88C51.5401 59.4267 52.1534 58.78 52.5934 57.94C53.0468 57.1 53.2734 56.1267 53.2734 55.02C53.2734 53.9 53.0468 52.9267 52.5934 52.1C52.1534 51.26 51.5468 50.6133 50.7734 50.16C50.0001 49.7067 49.1201 49.48 48.1334 49.48C47.1468 49.48 46.2668 49.7067 45.4934 50.16C44.7201 50.6133 44.1068 51.26 43.6534 52.1C43.2134 52.9267 42.9934 53.9 42.9934 55.02C42.9934 56.1267 43.2134 57.1 43.6534 57.94C44.1068 58.78 44.7201 59.4267 45.4934 59.88C46.2801 60.3333 47.1601 60.56 48.1334 60.56ZM67.2561 51.04V62H65.4361V60.38C65.0894 60.94 64.6028 61.38 63.9761 61.7C63.3628 62.0067 62.6828 62.16 61.9361 62.16C61.0828 62.16 60.3161 61.9867 59.6361 61.64C58.9561 61.28 58.4161 60.7467 58.0161 60.04C57.6294 59.3333 57.4361 58.4733 57.4361 57.46V51.04H59.2361V57.22C59.2361 58.3 59.5094 59.1333 60.0561 59.72C60.6028 60.2933 61.3494 60.58 62.2961 60.58C63.2694 60.58 64.0361 60.28 64.5961 59.68C65.1561 59.08 65.4361 58.2067 65.4361 57.06V51.04H67.2561ZM72.5491 52.54V59C72.5491 59.5333 72.6624 59.9133 72.8891 60.14C73.1157 60.3533 73.5091 60.46 74.0691 60.46H75.4091V62H73.7691C72.7557 62 71.9957 61.7667 71.4891 61.3C70.9824 60.8333 70.7291 60.0667 70.7291 59V52.54H69.3091V51.04H70.7291V48.28H72.5491V51.04H75.4091V52.54H72.5491Z" fill="#C4C4C4"/>
<path d="M45.9565 15.6522C46.4365 15.6522 46.8261 15.2626 46.8261 14.7826V4.3478C46.826 1.9513 44.8765 0 42.4782 0H23.3478C20.9496 0 19 1.9513 19 4.3478V35.6521C19 38.0486 20.9496 39.9999 23.3478 39.9999H42.4782C44.8765 39.9999 46.826 38.0486 46.826 35.6521V25.2174C46.826 24.7374 46.4364 24.3478 45.9564 24.3478C45.4764 24.3478 45.0869 24.7374 45.0869 25.2174V35.6521C45.0869 37.0904 43.9165 38.2608 42.4782 38.2608H23.3478C21.9095 38.2608 20.7391 37.0904 20.7391 35.6521V4.3478C20.7391 2.90951 21.9095 1.7391 23.3478 1.7391H42.4782C43.9165 1.7391 45.0869 2.90951 45.0869 4.3478V14.7826C45.0869 15.2626 45.4765 15.6522 45.9565 15.6522Z" fill="#C4C4C4"/>
<path d="M58.1304 19.1305H30.3044C29.8244 19.1305 29.4348 19.5201 29.4348 20.0001C29.4348 20.4801 29.8244 20.8696 30.3044 20.8696H58.1304C58.6104 20.8696 59 20.48 59 20C59 19.52 58.6104 19.1305 58.1304 19.1305Z" fill="#C4C4C4"/>
<path d="M58.7443 19.3878L53.5269 14.1704C53.1878 13.8313 52.6364 13.8313 52.2973 14.1704C51.9582 14.5096 51.9582 15.0609 52.2973 15.4L56.8991 20.0018L52.2973 24.6035C51.9582 24.9426 51.9582 25.4939 52.2973 25.8331C52.4678 26.0017 52.6903 26.087 52.913 26.087C53.1356 26.087 53.3582 26.0018 53.5269 25.8349L58.7443 20.6175C59.0834 20.2783 59.0834 19.7269 58.7443 19.3878Z" fill="#C4C4C4"/>
</svg>
