<svg width="40" height="40" viewBox="0 0 40 40" fill="none" xmlns="http://www.w3.org/2000/svg">
<g clip-path="url(#clip0)">
<path d="M20.0128 40C12.3376 40 6.09375 33.7213 6.09375 26.0037C6.09375 22.6404 7.23938 20.3537 8.56628 17.706C9.30267 16.2357 10.0644 14.7156 10.7678 12.7759L11.4996 10.7578C12.5787 11.022 12.2131 10.9326 13.2919 11.1969L13.0081 13.3249C12.7759 15.0638 13.0933 17.0361 13.8785 18.736C14.2114 19.4571 14.6133 20.097 15.0595 20.629C14.9048 17.8055 15.1941 15.0839 15.9247 12.5089C16.6907 9.80957 17.9196 7.32086 19.5776 5.11139C21.6412 2.36206 24.0112 0.566406 25.1102 0.418701L28.2248 0L26.1288 2.34192C25.1767 3.40546 24.6524 4.77844 24.6524 6.20789C24.6524 8.97095 26.3474 10.9317 28.3096 13.2022C29.5679 14.6576 30.9937 16.3074 32.0737 18.334C33.324 20.6802 33.9316 23.1888 33.9316 26.0037C33.9316 33.7213 27.6877 40 20.0128 40ZM11.0855 17.8516C10.9341 18.1583 10.7852 18.4555 10.6403 18.7451C9.39606 21.228 8.4137 23.1891 8.4137 26.0037C8.4137 32.442 13.6169 37.6801 20.0128 37.6801C26.4084 37.6801 31.6119 32.442 31.6119 26.0037C31.6119 20.5701 29.0408 17.5958 26.5546 14.7192C24.3832 12.2073 22.3325 9.83459 22.3325 6.20789C22.3325 5.91858 22.3477 5.6311 22.3782 5.34607C21.7239 6.08643 21.037 6.98395 20.3876 8.04321C18.5544 11.0339 16.5878 16.0526 17.6318 22.9794L17.937 25.0064L16.0422 24.2245C14.3021 23.5062 12.7856 21.9025 11.7722 19.7086C11.4944 19.1071 11.265 18.4848 11.0855 17.8516Z" fill="#FF0000"/>
</g>
<defs>
<clipPath id="clip0">
<rect width="40" height="40" fill="white"/>
</clipPath>
</defs>
</svg>
