<svg width="61" height="70" viewBox="0 0 61 70" fill="none" xmlns="http://www.w3.org/2000/svg">
<path d="M10.86 52.14C10.86 53.3 10.46 54.2667 9.66 55.04C8.87333 55.8 7.66667 56.18 6.04 56.18H3.36V62H1.54V48.06H6.04C7.61333 48.06 8.80667 48.44 9.62 49.2C10.4467 49.96 10.86 50.94 10.86 52.14ZM6.04 54.68C7.05333 54.68 7.8 54.46 8.28 54.02C8.76 53.58 9 52.9533 9 52.14C9 50.42 8.01333 49.56 6.04 49.56H3.36V54.68H6.04ZM14.942 52.82C15.262 52.1933 15.7154 51.7067 16.302 51.36C16.902 51.0133 17.6287 50.84 18.482 50.84V52.72H18.002C15.962 52.72 14.942 53.8267 14.942 56.04V62H13.122V51.04H14.942V52.82ZM25.363 62.18C24.3363 62.18 23.403 61.9467 22.563 61.48C21.7363 61.0133 21.083 60.3533 20.603 59.5C20.1363 58.6333 19.903 57.6333 19.903 56.5C19.903 55.38 20.143 54.3933 20.623 53.54C21.1163 52.6733 21.783 52.0133 22.623 51.56C23.463 51.0933 24.403 50.86 25.443 50.86C26.483 50.86 27.423 51.0933 28.263 51.56C29.103 52.0133 29.763 52.6667 30.243 53.52C30.7363 54.3733 30.983 55.3667 30.983 56.5C30.983 57.6333 30.7296 58.6333 30.223 59.5C29.7296 60.3533 29.0563 61.0133 28.203 61.48C27.3496 61.9467 26.403 62.18 25.363 62.18ZM25.363 60.58C26.0163 60.58 26.6296 60.4267 27.203 60.12C27.7763 59.8133 28.2363 59.3533 28.583 58.74C28.943 58.1267 29.123 57.38 29.123 56.5C29.123 55.62 28.9496 54.8733 28.603 54.26C28.2563 53.6467 27.803 53.1933 27.243 52.9C26.683 52.5933 26.0763 52.44 25.423 52.44C24.7563 52.44 24.143 52.5933 23.583 52.9C23.0363 53.1933 22.5963 53.6467 22.263 54.26C21.9296 54.8733 21.763 55.62 21.763 56.5C21.763 57.3933 21.923 58.1467 22.243 58.76C22.5763 59.3733 23.0163 59.8333 23.563 60.14C24.1096 60.4333 24.7096 60.58 25.363 60.58ZM37.8359 52.54H35.5359V62H33.7159V52.54H32.2959V51.04H33.7159V50.26C33.7159 49.0333 34.0293 48.14 34.6559 47.58C35.2959 47.0067 36.3159 46.72 37.7159 46.72V48.24C36.9159 48.24 36.3493 48.4 36.0159 48.72C35.6959 49.0267 35.5359 49.54 35.5359 50.26V51.04H37.8359V52.54ZM40.898 49.26C40.5513 49.26 40.258 49.14 40.018 48.9C39.778 48.66 39.658 48.3667 39.658 48.02C39.658 47.6733 39.778 47.38 40.018 47.14C40.258 46.9 40.5513 46.78 40.898 46.78C41.2313 46.78 41.5113 46.9 41.738 47.14C41.978 47.38 42.098 47.6733 42.098 48.02C42.098 48.3667 41.978 48.66 41.738 48.9C41.5113 49.14 41.2313 49.26 40.898 49.26ZM41.778 51.04V62H39.958V51.04H41.778ZM46.6998 47.2V62H44.8798V47.2H46.6998ZM59.8017 56.1C59.8017 56.4467 59.7817 56.8133 59.7417 57.2H50.9817C51.0484 58.28 51.4151 59.1267 52.0817 59.74C52.7617 60.34 53.5817 60.64 54.5417 60.64C55.3284 60.64 55.9817 60.46 56.5017 60.1C57.0351 59.7267 57.4084 59.2333 57.6217 58.62H59.5817C59.2884 59.6733 58.7017 60.5333 57.8217 61.2C56.9417 61.8533 55.8484 62.18 54.5417 62.18C53.5017 62.18 52.5684 61.9467 51.7417 61.48C50.9284 61.0133 50.2884 60.3533 49.8217 59.5C49.3551 58.6333 49.1217 57.6333 49.1217 56.5C49.1217 55.3667 49.3484 54.3733 49.8017 53.52C50.2551 52.6667 50.8884 52.0133 51.7017 51.56C52.5284 51.0933 53.4751 50.86 54.5417 50.86C55.5817 50.86 56.5017 51.0867 57.3017 51.54C58.1017 51.9933 58.7151 52.62 59.1417 53.42C59.5817 54.2067 59.8017 55.1 59.8017 56.1ZM57.9217 55.72C57.9217 55.0267 57.7684 54.4333 57.4617 53.94C57.1551 53.4333 56.7351 53.0533 56.2017 52.8C55.6817 52.5333 55.1017 52.4 54.4617 52.4C53.5417 52.4 52.7551 52.6933 52.1017 53.28C51.4617 53.8667 51.0951 54.68 51.0017 55.72H57.9217Z" fill="#C4C4C4"/>
<path d="M45.1422 25.8578C42.9638 23.6795 40.371 22.067 37.5421 21.0908C40.572 19.004 42.5625 15.5116 42.5625 11.5625C42.5625 5.18695 37.3755 0 31 0C24.6245 0 19.4375 5.18695 19.4375 11.5625C19.4375 15.5116 21.428 19.004 24.458 21.0908C21.6291 22.067 19.0363 23.6795 16.8579 25.8578C13.0804 29.6354 11 34.6578 11 40H14.125C14.125 30.6951 21.6951 23.125 31 23.125C40.3049 23.125 47.875 30.6951 47.875 40H51C51 34.6578 48.9196 29.6354 45.1422 25.8578ZM31 20C26.3476 20 22.5625 16.215 22.5625 11.5625C22.5625 6.91 26.3476 3.125 31 3.125C35.6524 3.125 39.4375 6.91 39.4375 11.5625C39.4375 16.215 35.6524 20 31 20Z" fill="#C4C4C4"/>
</svg>
