<svg width="60" height="70" viewBox="0 0 60 70" fill="none" xmlns="http://www.w3.org/2000/svg">
<g clip-path="url(#clip0)">
<path d="M49.3283 17.8816L45.9492 14.8026V4.59296C45.9492 3.94335 45.4225 3.41663 44.7728 3.41663H36.6389C35.9893 3.41663 35.4625 3.94327 35.4625 4.59296V5.24718L31.3816 1.52866C30.5939 0.810773 29.406 0.810851 28.6185 1.52859L10.6718 17.8816C10.0409 18.4566 9.83238 19.3426 10.1407 20.1386C10.449 20.9346 11.1998 21.4489 12.0535 21.4489H14.9198V37.8333C14.9198 38.483 15.4464 39.0097 16.0961 39.0097H25.9331C26.5827 39.0097 27.1094 38.483 27.1094 37.8333V27.8852H32.8907V37.8334C32.8907 38.483 33.4174 39.0098 34.0671 39.0098H43.9036C44.5532 39.0098 45.0799 38.4831 45.0799 37.8334V21.449H47.9468C48.8004 21.449 49.5513 20.9346 49.8596 20.1387C50.1678 19.3426 49.9594 18.4566 49.3283 17.8816ZM43.9036 19.0963C43.254 19.0963 42.7273 19.623 42.7273 20.2726V36.6571H35.2435V26.7089C35.2435 26.0593 34.7167 25.5326 34.0671 25.5326H25.9331C25.2835 25.5326 24.7567 26.0592 24.7567 26.7089V36.6571H17.2724V20.2726C17.2724 19.623 16.7457 19.0963 16.096 19.0963H12.8318L30.0002 3.45257L35.8467 8.77999C36.1911 9.09374 36.6882 9.1746 37.1142 8.98655C37.5403 8.79827 37.8153 8.37624 37.8153 7.91046V5.76929H43.5967V15.3221C43.5967 15.6531 43.736 15.9687 43.9807 16.1916L47.1685 19.0963H43.9036Z" fill="white"/>
</g>
<path d="M12.28 48.06V62H10.46V55.68H3.36V62H1.54V48.06H3.36V54.18H10.46V48.06H12.28ZM20.1677 62.18C19.141 62.18 18.2077 61.9467 17.3677 61.48C16.541 61.0133 15.8877 60.3533 15.4077 59.5C14.941 58.6333 14.7077 57.6333 14.7077 56.5C14.7077 55.38 14.9477 54.3933 15.4277 53.54C15.921 52.6733 16.5877 52.0133 17.4277 51.56C18.2677 51.0933 19.2077 50.86 20.2477 50.86C21.2877 50.86 22.2277 51.0933 23.0677 51.56C23.9077 52.0133 24.5677 52.6667 25.0477 53.52C25.541 54.3733 25.7877 55.3667 25.7877 56.5C25.7877 57.6333 25.5343 58.6333 25.0277 59.5C24.5343 60.3533 23.861 61.0133 23.0077 61.48C22.1543 61.9467 21.2077 62.18 20.1677 62.18ZM20.1677 60.58C20.821 60.58 21.4343 60.4267 22.0077 60.12C22.581 59.8133 23.041 59.3533 23.3877 58.74C23.7477 58.1267 23.9277 57.38 23.9277 56.5C23.9277 55.62 23.7543 54.8733 23.4077 54.26C23.061 53.6467 22.6077 53.1933 22.0477 52.9C21.4877 52.5933 20.881 52.44 20.2277 52.44C19.561 52.44 18.9477 52.5933 18.3877 52.9C17.841 53.1933 17.401 53.6467 17.0677 54.26C16.7343 54.8733 16.5677 55.62 16.5677 56.5C16.5677 57.3933 16.7277 58.1467 17.0477 58.76C17.381 59.3733 17.821 59.8333 18.3677 60.14C18.9143 60.4333 19.5143 60.58 20.1677 60.58ZM41.3606 50.84C42.214 50.84 42.974 51.02 43.6406 51.38C44.3073 51.7267 44.834 52.2533 45.2206 52.96C45.6073 53.6667 45.8006 54.5267 45.8006 55.54V62H44.0006V55.8C44.0006 54.7067 43.7273 53.8733 43.1806 53.3C42.6473 52.7133 41.9206 52.42 41.0006 52.42C40.054 52.42 39.3006 52.7267 38.7406 53.34C38.1806 53.94 37.9006 54.8133 37.9006 55.96V62H36.1006V55.8C36.1006 54.7067 35.8273 53.8733 35.2806 53.3C34.7473 52.7133 34.0206 52.42 33.1006 52.42C32.154 52.42 31.4006 52.7267 30.8406 53.34C30.2806 53.94 30.0006 54.8133 30.0006 55.96V62H28.1806V51.04H30.0006V52.62C30.3606 52.0467 30.8406 51.6067 31.4406 51.3C32.054 50.9933 32.7273 50.84 33.4606 50.84C34.3806 50.84 35.194 51.0467 35.9006 51.46C36.6073 51.8733 37.134 52.48 37.4806 53.28C37.7873 52.5067 38.294 51.9067 39.0006 51.48C39.7073 51.0533 40.494 50.84 41.3606 50.84ZM58.7861 56.1C58.7861 56.4467 58.7661 56.8133 58.7261 57.2H49.9661C50.0328 58.28 50.3994 59.1267 51.0661 59.74C51.7461 60.34 52.5661 60.64 53.5261 60.64C54.3128 60.64 54.9661 60.46 55.4861 60.1C56.0194 59.7267 56.3928 59.2333 56.6061 58.62H58.5661C58.2728 59.6733 57.6861 60.5333 56.8061 61.2C55.9261 61.8533 54.8328 62.18 53.5261 62.18C52.4861 62.18 51.5528 61.9467 50.7261 61.48C49.9128 61.0133 49.2728 60.3533 48.8061 59.5C48.3394 58.6333 48.1061 57.6333 48.1061 56.5C48.1061 55.3667 48.3328 54.3733 48.7861 53.52C49.2394 52.6667 49.8728 52.0133 50.6861 51.56C51.5128 51.0933 52.4594 50.86 53.5261 50.86C54.5661 50.86 55.4861 51.0867 56.2861 51.54C57.0861 51.9933 57.6994 52.62 58.1261 53.42C58.5661 54.2067 58.7861 55.1 58.7861 56.1ZM56.9061 55.72C56.9061 55.0267 56.7528 54.4333 56.4461 53.94C56.1394 53.4333 55.7194 53.0533 55.1861 52.8C54.6661 52.5333 54.0861 52.4 53.4461 52.4C52.5261 52.4 51.7394 52.6933 51.0861 53.28C50.4461 53.8667 50.0794 54.68 49.9861 55.72H56.9061Z" fill="white"/>
<defs>
<clipPath id="clip0">
<rect width="40" height="40" fill="white" transform="translate(10)"/>
</clipPath>
</defs>
</svg>
