<svg width="40" height="40" viewBox="0 0 40 40" fill="none" xmlns="http://www.w3.org/2000/svg">
<path d="M32.8567 20C32.0677 20 31.4281 20.6396 31.4281 21.4286V35.7141C31.4281 36.5031 30.7885 37.1427 29.9995 37.1427H4.28566C3.49666 37.1427 2.85708 36.5031 2.85708 35.7141V7.14308C2.85708 6.35408 3.49666 5.71449 4.28566 5.71449H21.4283C22.2173 5.71449 22.8569 5.07491 22.8569 4.28591C22.8569 3.49692 22.2173 2.85742 21.4283 2.85742H4.28566C1.91875 2.85742 0 4.77617 0 7.14308V35.7141C0 38.081 1.91875 39.9998 4.28566 39.9998H29.9996C32.3665 39.9998 34.2853 38.081 34.2853 35.7141V21.4285C34.2853 20.6396 33.6457 20 32.8567 20Z" fill="#CFCFCF"/>
<path d="M38.3987 1.60227C37.373 0.576394 35.9817 0.00017372 34.531 0.000341128C33.0795 -0.00384408 31.6868 0.57338 30.664 1.60319L11.847 20.4186C11.6909 20.5758 11.5731 20.767 11.5027 20.9771L8.64563 29.5484C8.39627 30.297 8.80098 31.1059 9.54955 31.3552C9.69478 31.4036 9.84687 31.4283 9.99988 31.4284C10.1532 31.4282 10.3057 31.4036 10.4513 31.3556L19.0226 28.4985C19.2331 28.4282 19.4244 28.3099 19.5812 28.1528L38.3981 9.33596C40.5338 7.2005 40.534 3.73799 38.3987 1.60227ZM36.3781 7.31735L17.8069 25.8886L12.2584 27.7414L14.1055 22.2L32.6838 3.62884C33.7052 2.60949 35.3596 2.61116 36.379 3.63252C36.8659 4.12043 37.1403 4.78094 37.1423 5.47025C37.1441 6.16323 36.869 6.82818 36.3781 7.31735Z" fill="#CFCFCF"/>
</svg>
