<svg width="30" height="40" viewBox="0 0 30 40" fill="none" xmlns="http://www.w3.org/2000/svg">
<path d="M17.4984 0H12.8109C12.1637 0 11.639 0.524687 11.639 1.17188V2.45625H8.12339C7.4762 2.45625 6.95151 2.98094 6.95151 3.62812V7.59766H3.43589C2.7887 7.59766 2.26401 8.12234 2.26401 8.76953V15.6438C1.9644 15.5774 1.79425 15.5453 1.78003 15.5426C0.986983 15.3948 0.284717 16.0746 0.406358 16.8713L3.78292 39.0048C3.87019 39.5772 4.36237 40 4.94136 40H25.0585C25.6375 40 26.1297 39.5772 26.217 39.0048C27.6882 29.3623 29.5692 17.0309 29.5935 16.8713C29.7267 15.9987 28.8807 15.2952 28.0453 15.5901V6.12969C28.0453 5.4825 27.5207 4.95781 26.8735 4.95781H22.186C21.5388 4.95781 21.0141 5.4825 21.0141 6.12969V7.59766H18.6703V1.17188C18.6703 0.524687 18.1456 0 17.4984 0ZM17.5628 22.23L17.5889 22.2198L26.9696 18.53L25.2667 29.6927C23.1842 26.7173 20.5078 24.2473 17.5628 22.23ZM13.9828 2.34375H16.3265V20.1978L15.1022 20.6794C14.9912 20.6151 14.4529 20.307 13.9828 20.0534C13.9828 19.3934 13.9828 2.99391 13.9828 2.34375ZM9.29526 4.8H11.639V18.8776C10.9661 18.5638 10.0794 18.1774 9.29526 17.8625C9.29526 17.2312 9.29526 5.19203 9.29526 4.8ZM4.60776 9.94141H6.95151V16.9891C6.21581 16.7357 5.38276 16.4705 4.60776 16.2472V9.94141ZM5.948 37.6562L2.98456 18.231C11.5027 20.4695 20.5381 25.4814 24.7209 33.2705L24.0518 37.6562H5.948ZM23.3578 7.30156H25.7015V16.5102L23.3578 17.4321V8.76953V7.30156ZM21.014 9.94141V18.354L18.6703 19.2759V9.94141H21.014Z" fill="#FF0000"/>
</svg>
