<svg width="61" height="71" viewBox="0 0 61 71" fill="none" xmlns="http://www.w3.org/2000/svg">
<path d="M44.1422 25.8578C41.9638 23.6795 39.371 22.067 36.5421 21.0908C39.572 19.004 41.5625 15.5116 41.5625 11.5625C41.5625 5.18695 36.3755 0 30 0C23.6245 0 18.4375 5.18695 18.4375 11.5625C18.4375 15.5116 20.428 19.004 23.458 21.0908C20.6291 22.067 18.0363 23.6795 15.8579 25.8578C12.0804 29.6354 10 34.6578 10 40H13.125C13.125 30.6951 20.6951 23.125 30 23.125C39.3049 23.125 46.875 30.6951 46.875 40H50C50 34.6578 47.9196 29.6354 44.1422 25.8578ZM30 20C25.3476 20 21.5625 16.215 21.5625 11.5625C21.5625 6.91 25.3476 3.125 30 3.125C34.6524 3.125 38.4375 6.91 38.4375 11.5625C38.4375 16.215 34.6524 20 30 20Z" fill="white"/>
<path d="M10.86 53.14C10.86 54.3 10.46 55.2667 9.66 56.04C8.87333 56.8 7.66667 57.18 6.04 57.18H3.36V63H1.54V49.06H6.04C7.61333 49.06 8.80667 49.44 9.62 50.2C10.4467 50.96 10.86 51.94 10.86 53.14ZM6.04 55.68C7.05333 55.68 7.8 55.46 8.28 55.02C8.76 54.58 9 53.9533 9 53.14C9 51.42 8.01333 50.56 6.04 50.56H3.36V55.68H6.04ZM14.942 53.82C15.262 53.1933 15.7154 52.7067 16.302 52.36C16.902 52.0133 17.6287 51.84 18.482 51.84V53.72H18.002C15.962 53.72 14.942 54.8267 14.942 57.04V63H13.122V52.04H14.942V53.82ZM25.363 63.18C24.3363 63.18 23.403 62.9467 22.563 62.48C21.7363 62.0133 21.083 61.3533 20.603 60.5C20.1363 59.6333 19.903 58.6333 19.903 57.5C19.903 56.38 20.143 55.3933 20.623 54.54C21.1163 53.6733 21.783 53.0133 22.623 52.56C23.463 52.0933 24.403 51.86 25.443 51.86C26.483 51.86 27.423 52.0933 28.263 52.56C29.103 53.0133 29.763 53.6667 30.243 54.52C30.7363 55.3733 30.983 56.3667 30.983 57.5C30.983 58.6333 30.7296 59.6333 30.223 60.5C29.7296 61.3533 29.0563 62.0133 28.203 62.48C27.3496 62.9467 26.403 63.18 25.363 63.18ZM25.363 61.58C26.0163 61.58 26.6296 61.4267 27.203 61.12C27.7763 60.8133 28.2363 60.3533 28.583 59.74C28.943 59.1267 29.123 58.38 29.123 57.5C29.123 56.62 28.9496 55.8733 28.603 55.26C28.2563 54.6467 27.803 54.1933 27.243 53.9C26.683 53.5933 26.0763 53.44 25.423 53.44C24.7563 53.44 24.143 53.5933 23.583 53.9C23.0363 54.1933 22.5963 54.6467 22.263 55.26C21.9296 55.8733 21.763 56.62 21.763 57.5C21.763 58.3933 21.923 59.1467 22.243 59.76C22.5763 60.3733 23.0163 60.8333 23.563 61.14C24.1096 61.4333 24.7096 61.58 25.363 61.58ZM37.8359 53.54H35.5359V63H33.7159V53.54H32.2959V52.04H33.7159V51.26C33.7159 50.0333 34.0293 49.14 34.6559 48.58C35.2959 48.0067 36.3159 47.72 37.7159 47.72V49.24C36.9159 49.24 36.3493 49.4 36.0159 49.72C35.6959 50.0267 35.5359 50.54 35.5359 51.26V52.04H37.8359V53.54ZM40.898 50.26C40.5513 50.26 40.258 50.14 40.018 49.9C39.778 49.66 39.658 49.3667 39.658 49.02C39.658 48.6733 39.778 48.38 40.018 48.14C40.258 47.9 40.5513 47.78 40.898 47.78C41.2313 47.78 41.5113 47.9 41.738 48.14C41.978 48.38 42.098 48.6733 42.098 49.02C42.098 49.3667 41.978 49.66 41.738 49.9C41.5113 50.14 41.2313 50.26 40.898 50.26ZM41.778 52.04V63H39.958V52.04H41.778ZM46.6998 48.2V63H44.8798V48.2H46.6998ZM59.8017 57.1C59.8017 57.4467 59.7817 57.8133 59.7417 58.2H50.9817C51.0484 59.28 51.4151 60.1267 52.0817 60.74C52.7617 61.34 53.5817 61.64 54.5417 61.64C55.3284 61.64 55.9817 61.46 56.5017 61.1C57.0351 60.7267 57.4084 60.2333 57.6217 59.62H59.5817C59.2884 60.6733 58.7017 61.5333 57.8217 62.2C56.9417 62.8533 55.8484 63.18 54.5417 63.18C53.5017 63.18 52.5684 62.9467 51.7417 62.48C50.9284 62.0133 50.2884 61.3533 49.8217 60.5C49.3551 59.6333 49.1217 58.6333 49.1217 57.5C49.1217 56.3667 49.3484 55.3733 49.8017 54.52C50.2551 53.6667 50.8884 53.0133 51.7017 52.56C52.5284 52.0933 53.4751 51.86 54.5417 51.86C55.5817 51.86 56.5017 52.0867 57.3017 52.54C58.1017 52.9933 58.7151 53.62 59.1417 54.42C59.5817 55.2067 59.8017 56.1 59.8017 57.1ZM57.9217 56.72C57.9217 56.0267 57.7684 55.4333 57.4617 54.94C57.1551 54.4333 56.7351 54.0533 56.2017 53.8C55.6817 53.5333 55.1017 53.4 54.4617 53.4C53.5417 53.4 52.7551 53.6933 52.1017 54.28C51.4617 54.8667 51.0951 55.68 51.0017 56.72H57.9217Z" fill="white"/>
</svg>
