<svg width="60" height="69" viewBox="0 0 60 69" fill="none" xmlns="http://www.w3.org/2000/svg">
<path d="M12.28 47.06V61H10.46V54.68H3.36V61H1.54V47.06H3.36V53.18H10.46V47.06H12.28ZM20.1677 61.18C19.141 61.18 18.2077 60.9467 17.3677 60.48C16.541 60.0133 15.8877 59.3533 15.4077 58.5C14.941 57.6333 14.7077 56.6333 14.7077 55.5C14.7077 54.38 14.9477 53.3933 15.4277 52.54C15.921 51.6733 16.5877 51.0133 17.4277 50.56C18.2677 50.0933 19.2077 49.86 20.2477 49.86C21.2877 49.86 22.2277 50.0933 23.0677 50.56C23.9077 51.0133 24.5677 51.6667 25.0477 52.52C25.541 53.3733 25.7877 54.3667 25.7877 55.5C25.7877 56.6333 25.5343 57.6333 25.0277 58.5C24.5343 59.3533 23.861 60.0133 23.0077 60.48C22.1543 60.9467 21.2077 61.18 20.1677 61.18ZM20.1677 59.58C20.821 59.58 21.4343 59.4267 22.0077 59.12C22.581 58.8133 23.041 58.3533 23.3877 57.74C23.7477 57.1267 23.9277 56.38 23.9277 55.5C23.9277 54.62 23.7543 53.8733 23.4077 53.26C23.061 52.6467 22.6077 52.1933 22.0477 51.9C21.4877 51.5933 20.881 51.44 20.2277 51.44C19.561 51.44 18.9477 51.5933 18.3877 51.9C17.841 52.1933 17.401 52.6467 17.0677 53.26C16.7343 53.8733 16.5677 54.62 16.5677 55.5C16.5677 56.3933 16.7277 57.1467 17.0477 57.76C17.381 58.3733 17.821 58.8333 18.3677 59.14C18.9143 59.4333 19.5143 59.58 20.1677 59.58ZM41.3606 49.84C42.214 49.84 42.974 50.02 43.6406 50.38C44.3073 50.7267 44.834 51.2533 45.2206 51.96C45.6073 52.6667 45.8006 53.5267 45.8006 54.54V61H44.0006V54.8C44.0006 53.7067 43.7273 52.8733 43.1806 52.3C42.6473 51.7133 41.9206 51.42 41.0006 51.42C40.054 51.42 39.3006 51.7267 38.7406 52.34C38.1806 52.94 37.9006 53.8133 37.9006 54.96V61H36.1006V54.8C36.1006 53.7067 35.8273 52.8733 35.2806 52.3C34.7473 51.7133 34.0206 51.42 33.1006 51.42C32.154 51.42 31.4006 51.7267 30.8406 52.34C30.2806 52.94 30.0006 53.8133 30.0006 54.96V61H28.1806V50.04H30.0006V51.62C30.3606 51.0467 30.8406 50.6067 31.4406 50.3C32.054 49.9933 32.7273 49.84 33.4606 49.84C34.3806 49.84 35.194 50.0467 35.9006 50.46C36.6073 50.8733 37.134 51.48 37.4806 52.28C37.7873 51.5067 38.294 50.9067 39.0006 50.48C39.7073 50.0533 40.494 49.84 41.3606 49.84ZM58.7861 55.1C58.7861 55.4467 58.7661 55.8133 58.7261 56.2H49.9661C50.0328 57.28 50.3994 58.1267 51.0661 58.74C51.7461 59.34 52.5661 59.64 53.5261 59.64C54.3128 59.64 54.9661 59.46 55.4861 59.1C56.0194 58.7267 56.3928 58.2333 56.6061 57.62H58.5661C58.2728 58.6733 57.6861 59.5333 56.8061 60.2C55.9261 60.8533 54.8328 61.18 53.5261 61.18C52.4861 61.18 51.5528 60.9467 50.7261 60.48C49.9128 60.0133 49.2728 59.3533 48.8061 58.5C48.3394 57.6333 48.1061 56.6333 48.1061 55.5C48.1061 54.3667 48.3328 53.3733 48.7861 52.52C49.2394 51.6667 49.8728 51.0133 50.6861 50.56C51.5128 50.0933 52.4594 49.86 53.5261 49.86C54.5661 49.86 55.4861 50.0867 56.2861 50.54C57.0861 50.9933 57.6994 51.62 58.1261 52.42C58.5661 53.2067 58.7861 54.1 58.7861 55.1ZM56.9061 54.72C56.9061 54.0267 56.7528 53.4333 56.4461 52.94C56.1394 52.4333 55.7194 52.0533 55.1861 51.8C54.6661 51.5333 54.0861 51.4 53.4461 51.4C52.5261 51.4 51.7394 51.6933 51.0861 52.28C50.4461 52.8667 50.0794 53.68 49.9861 54.72H56.9061Z" fill="#C4C4C4"/>
<g clip-path="url(#clip0)">
<path d="M49.3284 17.8816L45.9493 14.8026V4.59296C45.9493 3.94335 45.4226 3.41663 44.773 3.41663H36.639C35.9894 3.41663 35.4627 3.94327 35.4627 4.59296V5.24718L31.3817 1.52866C30.594 0.810773 29.4061 0.810851 28.6187 1.52859L10.672 17.8816C10.041 18.4566 9.8325 19.3426 10.1408 20.1386C10.4491 20.9346 11.1999 21.4489 12.0536 21.4489H14.9199V37.8333C14.9199 38.483 15.4466 39.0097 16.0962 39.0097H25.9332C26.5828 39.0097 27.1095 38.483 27.1095 37.8333V27.8852H32.8909V37.8334C32.8909 38.483 33.4175 39.0098 34.0672 39.0098H43.9037C44.5534 39.0098 45.0801 38.4831 45.08 37.8334V21.449H47.9469C48.8005 21.449 49.5514 20.9346 49.8598 20.1387C50.168 19.3426 49.9595 18.4566 49.3284 17.8816ZM43.9037 19.0963C43.2541 19.0963 42.7274 19.623 42.7274 20.2726V36.6571H35.2436V26.7089C35.2436 26.0593 34.7169 25.5326 34.0673 25.5326H25.9332C25.2836 25.5326 24.7569 26.0592 24.7569 26.7089V36.6571H17.2725V20.2726C17.2725 19.623 16.7459 19.0963 16.0962 19.0963H12.8319L30.0003 3.45257L35.8469 8.77999C36.1912 9.09374 36.6884 9.1746 37.1144 8.98655C37.5405 8.79827 37.8154 8.37624 37.8154 7.91046V5.76929H43.5968V15.3221C43.5968 15.6531 43.7362 15.9687 43.9809 16.1916L47.1686 19.0963H43.9037Z" fill="#C4C4C4"/>
</g>
<defs>
<clipPath id="clip0">
<rect width="40" height="40" fill="white" transform="translate(10)"/>
</clipPath>
</defs>
</svg>
