<svg width="32" height="48" viewBox="0 0 32 48" fill="none" xmlns="http://www.w3.org/2000/svg">
<path d="M14.4375 13.2663V20.875H2.71875C2.51155 20.875 2.31284 20.9573 2.16632 21.1038C2.01981 21.2503 1.9375 21.4491 1.9375 21.6563V24.5968L0.45752 27.5568C0.40324 27.6653 0.374987 27.785 0.375 27.9063V43.5313C0.374987 43.6526 0.40324 43.7722 0.45752 43.8807L2.02002 47.0057C2.08491 47.1354 2.18464 47.2446 2.30805 47.3208C2.43146 47.3971 2.57367 47.4375 2.71875 47.4375H15.2188C15.3638 47.4375 15.506 47.3971 15.6294 47.3208C15.7529 47.2446 15.8526 47.1354 15.9175 47.0057L15.9319 46.9764C16.5785 47.3732 17.3475 47.5208 18.095 47.3915C18.8425 47.2623 19.5173 46.8651 19.9931 46.2742C20.7098 46.9835 21.8055 47.4375 23.0313 47.4375C24.257 47.4375 25.3527 46.9835 26.0694 46.2746C26.4752 46.7778 27.027 47.1427 27.6489 47.3191C28.2707 47.4954 28.932 47.4745 29.5415 47.2593C30.151 47.044 30.6787 46.645 31.0518 46.1172C31.425 45.5894 31.6253 44.9589 31.625 44.3125C31.625 44.2962 31.625 44.28 31.6234 44.2637L30.8473 31.8436L31.6171 26.4541C31.622 26.4175 31.6243 26.3807 31.624 26.3438H31.625V13.2663C31.6263 12.4646 31.3796 11.6822 30.9189 11.0262L26.8755 5.25H26.9375C27.1447 5.25 27.3434 5.16769 27.4899 5.02118C27.6364 4.87466 27.7188 4.67595 27.7188 4.46875V2.90625C27.7181 2.28486 27.4709 1.68913 27.0315 1.24974C26.5921 0.810352 25.9964 0.563198 25.375 0.5625H20.6875C20.0661 0.563198 19.4704 0.810352 19.031 1.24974C18.5916 1.68913 18.3444 2.28486 18.3438 2.90625V4.46875C18.3438 4.67595 18.4261 4.87466 18.5726 5.02118C18.7191 5.16769 18.9178 5.25 19.125 5.25H19.187L15.144 11.0262C14.6831 11.6821 14.4363 12.4646 14.4375 13.2663ZM1.9375 42.75V28.6875H8.27432C9.04688 30.6825 9.75 32.7931 9.75 34.9375C9.75 38.4336 8.68057 40.4844 7.3999 42.75H1.9375ZM9.94619 28.6875H11.3993C12.1719 30.6825 12.875 32.7931 12.875 34.9375C12.875 38.4336 11.8056 40.4844 10.5249 42.75H9.18867C10.3465 40.6309 11.3125 38.4111 11.3125 34.9375C11.3125 32.7419 10.6841 30.657 9.94619 28.6875ZM14.7359 45.875H3.20156L2.42031 44.3125H15.5172L14.7359 45.875ZM28.5 45.875C28.0858 45.8745 27.6886 45.7097 27.3957 45.4168C27.1028 45.1239 26.938 44.7268 26.9375 44.3125C26.9375 44.1053 26.8552 43.9066 26.7087 43.7601C26.5622 43.6136 26.3635 43.5313 26.1563 43.5313C25.9491 43.5313 25.7503 43.6136 25.6038 43.7601C25.4573 43.9066 25.375 44.1053 25.375 44.3125C25.375 45.1595 24.3017 45.875 23.0313 45.875C21.7608 45.875 20.6875 45.1595 20.6875 44.3125C20.6875 44.1053 20.6052 43.9066 20.4587 43.7601C20.3122 43.6136 20.1135 43.5313 19.9063 43.5313C19.6991 43.5313 19.5003 43.6136 19.3538 43.7601C19.2073 43.9066 19.125 44.1053 19.125 44.3125C19.1251 44.6016 19.045 44.8851 18.8935 45.1313C18.7421 45.3776 18.5253 45.577 18.2672 45.7073C18.0091 45.8376 17.72 45.8937 17.4319 45.8694C17.1438 45.8451 16.8681 45.7413 16.6355 45.5696L17.48 43.8802C17.5342 43.7718 17.5624 43.6524 17.5625 43.5313V27.9063C17.5625 27.785 17.5343 27.6653 17.48 27.5568L17.2641 27.125H29.943L29.2892 31.7021C29.2815 31.7547 29.2794 31.8081 29.2828 31.8612L30.0625 44.3345C30.0562 44.7449 29.8889 45.1364 29.5966 45.4246C29.3043 45.7128 28.9105 45.8746 28.5 45.875ZM19.9063 2.90625C19.9065 2.69912 19.9889 2.50054 20.1353 2.35408C20.2818 2.20762 20.4804 2.12523 20.6875 2.125H25.375C25.5821 2.12523 25.7807 2.20762 25.9272 2.35408C26.0736 2.50054 26.156 2.69912 26.1563 2.90625V3.6875H19.9063V2.90625ZM16 13.2663C15.9993 12.7853 16.1472 12.3159 16.4236 11.9223L21.0942 5.25H24.9683L29.6389 11.9223C29.9153 12.3159 30.0632 12.7853 30.0625 13.2663V14.625H16V13.2663ZM16 21.6563V16.1875H30.0625V25.5625H16.4828L16 24.5968V21.6563ZM16 42.75H12.3137C13.4715 40.6309 14.4375 38.4111 14.4375 34.9375C14.4375 32.7419 13.8091 30.657 13.0712 28.6875H16V42.75ZM2.42031 27.125L3.20156 25.5625H10.5313C10.7385 25.5625 10.9372 25.4802 11.0837 25.3337C11.2302 25.1872 11.3125 24.9885 11.3125 24.7813C11.3125 24.5741 11.2302 24.3753 11.0837 24.2288C10.9372 24.0823 10.7385 24 10.5313 24H3.5V22.4375H14.4375V24H13.6563C13.4491 24 13.2503 24.0823 13.1038 24.2288C12.9573 24.3753 12.875 24.5741 12.875 24.7813C12.875 24.9885 12.9573 25.1872 13.1038 25.3337C13.2503 25.4802 13.4491 25.5625 13.6563 25.5625H14.7359L15.5172 27.125H2.42031Z" fill="#FF0000"/>
</svg>
