<svg width="77" height="66" viewBox="0 0 77 66" fill="none" xmlns="http://www.w3.org/2000/svg">
<path d="M45.9565 15.6522C46.4365 15.6522 46.8261 15.2626 46.8261 14.7826V4.3478C46.826 1.9513 44.8765 0 42.4782 0H23.3478C20.9496 0 19 1.9513 19 4.3478V35.6521C19 38.0486 20.9496 39.9999 23.3478 39.9999H42.4782C44.8765 39.9999 46.826 38.0486 46.826 35.6521V25.2174C46.826 24.7374 46.4364 24.3478 45.9564 24.3478C45.4764 24.3478 45.0869 24.7374 45.0869 25.2174V35.6521C45.0869 37.0904 43.9165 38.2608 42.4782 38.2608H23.3478C21.9095 38.2608 20.7391 37.0904 20.7391 35.6521V4.3478C20.7391 2.90951 21.9095 1.7391 23.3478 1.7391H42.4782C43.9165 1.7391 45.0869 2.90951 45.0869 4.3478V14.7826C45.0869 15.2626 45.4765 15.6522 45.9565 15.6522Z" fill="white"/>
<path d="M58.1304 19.1305H30.3044C29.8244 19.1305 29.4348 19.5201 29.4348 20.0001C29.4348 20.4801 29.8244 20.8696 30.3044 20.8696H58.1304C58.6104 20.8696 59 20.48 59 20C59 19.52 58.6104 19.1305 58.1304 19.1305Z" fill="white"/>
<path d="M58.7443 19.3878L53.5269 14.1704C53.1878 13.8313 52.6364 13.8313 52.2973 14.1704C51.9582 14.5096 51.9582 15.0609 52.2973 15.4L56.8991 20.0018L52.2973 24.6035C51.9582 24.9426 51.9582 25.4939 52.2973 25.8331C52.4678 26.0017 52.6903 26.087 52.913 26.087C53.1356 26.087 53.3582 26.0018 53.5269 25.8349L58.7443 20.6175C59.0834 20.2783 59.0834 19.7269 58.7443 19.3878Z" fill="white"/>
<path d="M3.36 56.52H8.24V58H1.54V44.06H3.36V56.52ZM14.9528 58.18C13.9261 58.18 12.9928 57.9467 12.1528 57.48C11.3261 57.0133 10.6728 56.3533 10.1928 55.5C9.72615 54.6333 9.49281 53.6333 9.49281 52.5C9.49281 51.38 9.73281 50.3933 10.2128 49.54C10.7061 48.6733 11.3728 48.0133 12.2128 47.56C13.0528 47.0933 13.9928 46.86 15.0328 46.86C16.0728 46.86 17.0128 47.0933 17.8528 47.56C18.6928 48.0133 19.3528 48.6667 19.8328 49.52C20.3261 50.3733 20.5728 51.3667 20.5728 52.5C20.5728 53.6333 20.3195 54.6333 19.8128 55.5C19.3195 56.3533 18.6461 57.0133 17.7928 57.48C16.9395 57.9467 15.9928 58.18 14.9528 58.18ZM14.9528 56.58C15.6061 56.58 16.2195 56.4267 16.7928 56.12C17.3661 55.8133 17.8261 55.3533 18.1728 54.74C18.5328 54.1267 18.7128 53.38 18.7128 52.5C18.7128 51.62 18.5395 50.8733 18.1928 50.26C17.8461 49.6467 17.3928 49.1933 16.8328 48.9C16.2728 48.5933 15.6661 48.44 15.0128 48.44C14.3461 48.44 13.7328 48.5933 13.1728 48.9C12.6261 49.1933 12.1861 49.6467 11.8528 50.26C11.5195 50.8733 11.3528 51.62 11.3528 52.5C11.3528 53.3933 11.5128 54.1467 11.8328 54.76C12.1661 55.3733 12.6061 55.8333 13.1528 56.14C13.6995 56.4333 14.2995 56.58 14.9528 56.58ZM27.4858 46.86C28.4324 46.86 29.2591 47.0667 29.9658 47.48C30.6858 47.8933 31.2191 48.4133 31.5658 49.04V47.04H33.4058V58.24C33.4058 59.24 33.1924 60.1267 32.7658 60.9C32.3391 61.6867 31.7258 62.3 30.9258 62.74C30.1391 63.18 29.2191 63.4 28.1658 63.4C26.7258 63.4 25.5258 63.06 24.5658 62.38C23.6058 61.7 23.0391 60.7733 22.8658 59.6H24.6658C24.8658 60.2667 25.2791 60.8 25.9058 61.2C26.5324 61.6133 27.2858 61.82 28.1658 61.82C29.1658 61.82 29.9791 61.5067 30.6058 60.88C31.2458 60.2533 31.5658 59.3733 31.5658 58.24V55.94C31.2058 56.58 30.6724 57.1133 29.9658 57.54C29.2591 57.9667 28.4324 58.18 27.4858 58.18C26.5124 58.18 25.6258 57.94 24.8258 57.46C24.0391 56.98 23.4191 56.3067 22.9658 55.44C22.5124 54.5733 22.2858 53.5867 22.2858 52.48C22.2858 51.36 22.5124 50.38 22.9658 49.54C23.4191 48.6867 24.0391 48.0267 24.8258 47.56C25.6258 47.0933 26.5124 46.86 27.4858 46.86ZM31.5658 52.5C31.5658 51.6733 31.3991 50.9533 31.0658 50.34C30.7324 49.7267 30.2791 49.26 29.7058 48.94C29.1458 48.6067 28.5258 48.44 27.8458 48.44C27.1658 48.44 26.5458 48.6 25.9858 48.92C25.4258 49.24 24.9791 49.7067 24.6458 50.32C24.3124 50.9333 24.1458 51.6533 24.1458 52.48C24.1458 53.32 24.3124 54.0533 24.6458 54.68C24.9791 55.2933 25.4258 55.7667 25.9858 56.1C26.5458 56.42 27.1658 56.58 27.8458 56.58C28.5258 56.58 29.1458 56.42 29.7058 56.1C30.2791 55.7667 30.7324 55.2933 31.0658 54.68C31.3991 54.0533 31.5658 53.3267 31.5658 52.5ZM48.1334 58.14C46.8401 58.14 45.6601 57.84 44.5934 57.24C43.5268 56.6267 42.6801 55.78 42.0534 54.7C41.4401 53.6067 41.1334 52.38 41.1334 51.02C41.1334 49.66 41.4401 48.44 42.0534 47.36C42.6801 46.2667 43.5268 45.42 44.5934 44.82C45.6601 44.2067 46.8401 43.9 48.1334 43.9C49.4401 43.9 50.6268 44.2067 51.6934 44.82C52.7601 45.42 53.6001 46.26 54.2134 47.34C54.8268 48.42 55.1334 49.6467 55.1334 51.02C55.1334 52.3933 54.8268 53.62 54.2134 54.7C53.6001 55.78 52.7601 56.6267 51.6934 57.24C50.6268 57.84 49.4401 58.14 48.1334 58.14ZM48.1334 56.56C49.1068 56.56 49.9801 56.3333 50.7534 55.88C51.5401 55.4267 52.1534 54.78 52.5934 53.94C53.0468 53.1 53.2734 52.1267 53.2734 51.02C53.2734 49.9 53.0468 48.9267 52.5934 48.1C52.1534 47.26 51.5468 46.6133 50.7734 46.16C50.0001 45.7067 49.1201 45.48 48.1334 45.48C47.1468 45.48 46.2668 45.7067 45.4934 46.16C44.7201 46.6133 44.1068 47.26 43.6534 48.1C43.2134 48.9267 42.9934 49.9 42.9934 51.02C42.9934 52.1267 43.2134 53.1 43.6534 53.94C44.1068 54.78 44.7201 55.4267 45.4934 55.88C46.2801 56.3333 47.1601 56.56 48.1334 56.56ZM67.2561 47.04V58H65.4361V56.38C65.0894 56.94 64.6028 57.38 63.9761 57.7C63.3628 58.0067 62.6828 58.16 61.9361 58.16C61.0828 58.16 60.3161 57.9867 59.6361 57.64C58.9561 57.28 58.4161 56.7467 58.0161 56.04C57.6294 55.3333 57.4361 54.4733 57.4361 53.46V47.04H59.2361V53.22C59.2361 54.3 59.5094 55.1333 60.0561 55.72C60.6028 56.2933 61.3494 56.58 62.2961 56.58C63.2694 56.58 64.0361 56.28 64.5961 55.68C65.1561 55.08 65.4361 54.2067 65.4361 53.06V47.04H67.2561ZM72.5491 48.54V55C72.5491 55.5333 72.6624 55.9133 72.8891 56.14C73.1157 56.3533 73.5091 56.46 74.0691 56.46H75.4091V58H73.7691C72.7557 58 71.9957 57.7667 71.4891 57.3C70.9824 56.8333 70.7291 56.0667 70.7291 55V48.54H69.3091V47.04H70.7291V44.28H72.5491V47.04H75.4091V48.54H72.5491Z" fill="white"/>
</svg>
