<svg width="80" height="80" viewBox="0 0 80 80" fill="none" xmlns="http://www.w3.org/2000/svg">
<path d="M80 49.5215C80 46.0809 77.7893 43.1488 74.715 42.0654V38.1555C75.2094 37.973 75.6854 37.7325 76.1328 37.4323C77.912 36.2366 78.9325 34.3494 78.9325 32.2528C78.9325 30.9418 78.5272 29.7009 77.774 28.6572C78.1549 27.7545 78.2697 26.7523 78.0847 25.7648C76.7468 18.609 72.1521 12.0587 65.1471 7.31934C58.1702 2.59949 49.2395 0 40 0C30.7605 0 21.8298 2.59949 14.8529 7.31934C7.8479 12.0581 3.25317 18.609 1.91528 25.7648C1.68335 27.0032 1.922 28.2642 2.56775 29.3231C2.0813 30.2155 1.828 31.2091 1.828 32.2528C1.828 34.3494 2.84851 36.2378 4.6283 37.4329C4.8407 37.5757 5.06104 37.7032 5.28503 37.8198V42.0654C2.21069 43.1488 0 46.0809 0 49.5215V49.8389C0 52.1179 0.971069 54.1736 2.51953 55.6177C2.06787 56.4868 1.828 57.4536 1.828 58.4491C1.828 60.0134 2.39685 61.4606 3.42407 62.5916V68.23C3.42407 74.2535 8.32458 79.1547 14.3488 79.1547H65.6512C71.6754 79.1547 76.5759 74.2535 76.5759 68.23V63.3002C78.0792 62.1021 78.9325 60.3632 78.9325 58.4485C78.9325 57.2479 78.5944 56.1115 77.9626 55.1288C79.2279 53.7274 80 51.8719 80 49.8389V49.5215ZM76.875 49.5215V49.8389C76.875 51.452 76.0706 52.8802 74.8425 53.7463C74.0424 54.3103 73.075 54.6179 72.0959 54.6179H47.8668L57.8308 44.7424H72.0953C74.7308 44.7424 76.875 46.8866 76.875 49.5215ZM23.6823 44.7424L23.9301 44.9908L25.5328 46.593L22.1777 49.9487L16.9714 44.7424H23.6823ZM38.4351 55.0757L28.8489 45.4901C28.8489 45.4895 28.8483 45.4889 28.8477 45.4883L28.1018 44.7424H53.385L42.9425 55.0696C42.9419 55.0702 42.9413 55.0708 42.9407 55.072C42.9395 55.0732 42.9376 55.0745 42.9364 55.0757L40.6854 57.3267L38.4351 55.0757ZM4.98657 26.3385C6.17004 20.0104 10.296 14.1748 16.604 9.90723C23.0695 5.53345 31.3782 3.125 40 3.125C48.6218 3.125 56.9305 5.53345 63.396 9.90723C69.704 14.1748 73.8293 20.0104 75.0134 26.3385C75.2325 27.5122 74.295 28.6334 73.1036 28.6334H6.89636C5.70312 28.6334 4.76746 27.5122 4.98657 26.3385ZM5.06836 31.4185C5.6488 31.6431 6.27441 31.7584 6.89636 31.7584H73.1036C73.9661 31.7584 74.8334 31.535 75.5853 31.1121C75.7324 31.4734 75.8075 31.8622 75.8075 32.2522C75.8075 33.2904 75.2911 34.2328 74.3903 34.8376C73.4692 35.4565 72.2961 35.6049 71.2427 35.2716C70.722 35.1068 70.2307 34.8944 69.6936 34.7797C69.1125 34.6552 68.5181 34.6002 67.9242 34.6002C65.1331 34.6002 63.6353 35.6573 62.4323 36.5063C61.3763 37.2522 60.5426 37.8412 58.7433 37.8412C56.944 37.8412 56.1102 37.2522 55.0543 36.507C53.8513 35.6567 52.3541 34.6002 49.5624 34.6002C46.7712 34.6002 45.274 35.6573 44.071 36.507C43.0151 37.2522 42.1814 37.8412 40.3821 37.8412C38.5828 37.8412 37.7484 37.2522 36.6925 36.5063C35.4895 35.6567 33.9923 34.6002 31.2012 34.6002C28.41 34.6002 26.9122 35.6573 25.7092 36.5063C24.6533 37.2522 23.819 37.8412 22.0203 37.8412C20.2203 37.8412 19.3866 37.2522 18.3301 36.5063C17.1271 35.6567 15.6299 34.6002 12.8381 34.6002C11.734 34.6002 10.7385 34.7876 9.79431 35.1727C8.6792 35.6281 7.37427 35.5127 6.37085 34.8383C5.46997 34.2334 4.95361 33.291 4.95361 32.2528C4.953 31.9653 4.99207 31.6858 5.06836 31.4185ZM8.7207 38.5651C9.54041 38.5254 10.3094 38.3185 11.0724 38.028C11.8335 37.7374 12.6636 37.6801 13.4698 37.7521C14.8492 37.8748 15.6036 38.4076 16.5277 39.0594C17.7307 39.9091 19.2279 40.9662 22.0197 40.9662C24.8108 40.9662 26.308 39.9091 27.511 39.0594C28.5669 38.3142 29.4012 37.7252 31.2006 37.7252C32.9999 37.7252 33.8336 38.3142 34.8895 39.0594C36.0925 39.9091 37.5903 40.9662 40.3815 40.9662C43.1726 40.9662 44.6698 39.9091 45.8728 39.0594C46.9287 38.3142 47.7631 37.7252 49.5618 37.7252C51.3611 37.7252 52.1954 38.3142 53.2513 39.0594C54.4543 39.9091 55.9515 40.9662 58.7427 40.9662C61.5338 40.9662 63.031 39.9091 64.234 39.0594C65.2905 38.3142 66.1243 37.7252 67.9236 37.7252C68.562 37.7252 69.1888 37.8314 69.7839 38.0652C70.3644 38.2935 70.9686 38.4576 71.5894 38.5303V41.618H57.1881C57.1875 41.618 57.1875 41.618 57.1869 41.618H57.1863H24.3341C24.3329 41.618 24.3311 41.618 24.3298 41.618C24.328 41.618 24.3262 41.618 24.325 41.618H8.41003V38.5736C8.51379 38.573 8.61694 38.5699 8.7207 38.5651ZM3.125 49.5215C3.125 46.8866 5.26917 44.7424 7.90405 44.7424H12.5525L21.073 53.2635C21.366 53.5565 21.7633 53.7207 22.1777 53.7207C22.5922 53.7207 22.9895 53.5565 23.2825 53.2635L27.7429 48.8031L33.5577 54.6179H7.90405C7.07825 54.6179 6.25732 54.3994 5.54077 53.9899C4.09912 53.1665 3.125 51.615 3.125 49.8389V49.5215ZM5.21118 57.2699C6.07117 57.5818 6.98914 57.7429 7.90405 57.7429H36.6827L39.5807 60.6409C40.1801 61.2408 41.1841 61.2421 41.7853 60.6458L44.7144 57.7429H72.0953C72.9767 57.7429 73.8568 57.5934 74.6893 57.3053C74.8639 57.2449 75.0421 57.1838 75.2063 57.0996C75.2594 57.0721 75.3363 57.0111 75.3992 57.0154C75.4858 57.0215 75.5084 57.132 75.5396 57.2015C75.7086 57.5745 75.799 57.9828 75.8063 58.3923C75.8325 59.8663 74.7711 61.0999 73.385 61.5015C72.5909 61.7322 71.731 61.6809 70.9656 61.3684C70.0232 60.9833 69.0277 60.7959 67.9236 60.7959C65.1324 60.7959 63.6353 61.853 62.4323 62.7026C61.3757 63.4485 60.542 64.0375 58.7427 64.0375C56.944 64.0375 56.1096 63.4485 55.0537 62.7026C53.8507 61.853 52.3535 60.7959 49.5624 60.7959C46.7712 60.7959 45.274 61.853 44.0704 62.7026C43.0145 63.4485 42.1808 64.0375 40.3815 64.0375C38.5822 64.0375 37.7484 63.4485 36.6919 62.7026C35.4889 61.853 33.9917 60.7959 31.2006 60.7959C28.4094 60.7959 26.9122 61.853 25.7086 62.7026C24.6527 63.4485 23.819 64.0375 22.0197 64.0375C20.2197 64.0375 19.386 63.4479 18.3301 62.7026C17.1265 61.853 15.6293 60.7959 12.8375 60.7959C11.7334 60.7959 10.7379 60.9833 9.79431 61.369C8.77441 61.7853 7.58545 61.7303 6.62292 61.1884C5.77148 60.7092 5.13733 59.8877 4.9884 58.9117C4.94385 58.623 4.94141 58.3276 4.97986 58.0377C4.99084 57.9535 5.13428 57.2418 5.21118 57.2699ZM73.4509 68.23C73.4509 72.5305 69.9518 76.0297 65.6512 76.0297H14.3488C10.0482 76.0297 6.54907 72.5305 6.54907 68.23V64.5239C7.83203 64.8877 9.21692 64.8621 10.5365 64.4232C10.5634 64.4141 10.5902 64.4049 10.6165 64.3964C10.7367 64.3542 10.8569 64.3109 10.9753 64.2621C11.5369 64.0326 12.146 63.9215 12.8375 63.9215C14.6375 63.9215 15.4712 64.5099 16.5271 65.2557C17.7307 66.1053 19.2279 67.1625 22.0197 67.1625C24.8108 67.1625 26.308 66.1053 27.511 65.2557C28.5669 64.5099 29.4012 63.9215 31.2 63.9215C32.9993 63.9215 33.8336 64.5099 34.8895 65.2557C36.0925 66.1053 37.5897 67.1625 40.3815 67.1625C43.1726 67.1625 44.6698 66.1053 45.8728 65.2557C46.9287 64.5099 47.7631 63.9215 49.5618 63.9215C51.3611 63.9215 52.1954 64.5099 53.2507 65.2557C54.4537 66.1053 55.9515 67.1625 58.7427 67.1625C61.5338 67.1625 63.031 66.1053 64.234 65.2557C65.2899 64.5099 66.1243 63.9215 67.9236 63.9215C68.3893 63.9215 68.8562 63.9734 69.306 64.0985C69.7339 64.2175 70.1379 64.4055 70.5658 64.5264C71.4948 64.7882 72.4976 64.8438 73.4503 64.6887V68.23H73.4509Z" fill="#FF0000"/>
</svg>
